{"asset":{"version":"2.0","generator":"VECTARY"},"nodes":[{"translation":[0,-7.105427357601002e-18,0.014999999999999996],"scale":[0.001,0.001,0.001],"rotation":[-0.7071067811865475,0,0,0.7071067811865476],"name":"Group 35","children":[1,2,3]},{"translation":[0,0,-8.881784197001252e-16],"scale":[1,1,1],"rotation":[0,0,0,1],"name":"Merged Objects","mesh":0},{"translation":[0,20,40],"scale":[1,1,1],"rotation":[0,0,0,1],"name":"Merged Objects 2","mesh":1},{"translation":[0,5,100],"scale":[1,1,1],"rotation":[0,0,0,1],"name":"Merged Objects 3","mesh":2}],"materials":[{"pbrMetallicRoughness":{"baseColorFactor":[0.04943345755590796,0.1904628788224093,0.9573695761995268,1],"metallicFactor":0,"roughnessFactor":0.2},"name":"Quiet Time","emissiveFactor":[0,0,0],"alphaMode":"OPAQUE","doubleSided":false},{"pbrMetallicRoughness":{"baseColorFactor":[0.907547199521614,0.907547199521614,0.907547199521614,1],"metallicFactor":0,"roughnessFactor":0.2},"name":"Gossip Soda","emissiveFactor":[0,0,0],"alphaMode":"OPAQUE","doubleSided":false},{"pbrMetallicRoughness":{"baseColorFactor":[0.04943345755590796,0.1904628788224093,0.9573695761995268,1],"metallicFactor":0,"roughnessFactor":0.2},"name":"Glittery Glow","emissiveFactor":[0.058823529411764705,0.10980392156862745,0.23137254901960785],"alphaMode":"OPAQUE","doubleSided":false}],"meshes":[{"primitives":[{"mode":4,"attributes":{"POSITION":1,"NORMAL":2},"material":0,"indices":0}]},{"primitives":[{"mode":4,"attributes":{"POSITION":4,"NORMAL":5},"material":1,"indices":3}]},{"primitives":[{"mode":4,"attributes":{"POSITION":7,"NORMAL":8},"material":2,"indices":6}]}],"accessors":[{"bufferView":0,"byteOffset":0,"componentType":5125,"count":3636,"type":"SCALAR"},{"bufferView":1,"byteOffset":0,"componentType":5126,"count":1114,"max":[60,25,50],"min":[-60,-25,-8.881784197001252e-16],"type":"VEC3"},{"bufferView":2,"byteOffset":0,"componentType":5126,"count":1114,"type":"VEC3"},{"bufferView":3,"byteOffset":0,"componentType":5125,"count":432,"type":"SCALAR"},{"bufferView":4,"byteOffset":0,"componentType":5126,"count":224,"max":[10,5,60],"min":[-10,-5,0],"type":"VEC3"},{"bufferView":5,"byteOffset":0,"componentType":5126,"count":224,"type":"VEC3"},{"bufferView":6,"byteOffset":0,"componentType":5125,"count":2628,"type":"SCALAR"},{"bufferView":7,"byteOffset":0,"componentType":5126,"count":942,"max":[30,20,60],"min":[-30,-20,0],"type":"VEC3"},{"bufferView":8,"byteOffset":0,"componentType":5126,"count":942,"type":"VEC3"}],"bufferViews":[{"buffer":0,"byteOffset":0,"byteLength":14544,"target":34963},{"buffer":0,"byteOffset":14544,"byteLength":13368,"target":34962},{"buffer":0,"byteOffset":27912,"byteLength":13368,"target":34962},{"buffer":0,"byteOffset":41280,"byteLength":1728,"target":34963},{"buffer":0,"byteOffset":43008,"byteLength":2688,"target":34962},{"buffer":0,"byteOffset":45696,"byteLength":2688,"target":34962},{"buffer":0,"byteOffset":48384,"byteLength":10512,"target":34963},{"buffer":0,"byteOffset":58896,"byteLength":11304,"target":34962},{"buffer":0,"byteOffset":70200,"byteLength":11304,"target":34962}],"scene":0,"scenes":[{"nodes":[0],"name":"Joy"}],"extensionsUsed":["KHR_texture_transform"],"buffers":[{"byteLength":81504,"uri":"Joy.bin"}]}