{"asset":{"version":"2.0","generator":"VECTARY"},"nodes":[{"translation":[0,0,0],"scale":[0.001,0.001,0.001],"rotation":[-0.7071067811865475,0,0,0.7071067811865476],"name":"Group","children":[1,2,3]},{"translation":[-40,-10,70],"scale":[1,1,1],"rotation":[0,0,0,1],"name":"Sphere 2","mesh":0},{"translation":[40,-10,70],"scale":[1,1,1],"rotation":[0,0,0,1],"name":"Sphere 1","mesh":1},{"translation":[0,0,0],"scale":[1,1,1],"rotation":[0,0,0,1],"name":"Sphere & Box","mesh":2}],"materials":[{"pbrMetallicRoughness":{"baseColorFactor":[0,0,0,1],"metallicFactor":0,"roughnessFactor":0.2},"name":"Hugo","emissiveFactor":[0,0,0],"alphaMode":"OPAQUE","doubleSided":false},{"pbrMetallicRoughness":{"baseColorFactor":[0.04943345755590796,0.1904628788224093,0.9573695761995268,1],"metallicFactor":0,"roughnessFactor":0.49},"name":"Maverick","emissiveFactor":[0,0,0],"alphaMode":"OPAQUE","doubleSided":false}],"meshes":[{"primitives":[{"mode":4,"attributes":{"POSITION":1,"NORMAL":2},"material":0,"indices":0}]},{"primitives":[{"mode":4,"attributes":{"POSITION":4,"NORMAL":5},"material":0,"indices":3}]},{"primitives":[{"mode":4,"attributes":{"POSITION":7,"NORMAL":8},"material":1,"indices":6}]}],"accessors":[{"bufferView":0,"byteOffset":0,"componentType":5125,"count":2880,"type":"SCALAR"},{"bufferView":1,"byteOffset":0,"componentType":5126,"count":482,"max":[10,10,20],"min":[-10,-10,0],"type":"VEC3"},{"bufferView":2,"byteOffset":0,"componentType":5126,"count":482,"type":"VEC3"},{"bufferView":3,"byteOffset":0,"componentType":5125,"count":2880,"type":"SCALAR"},{"bufferView":4,"byteOffset":0,"componentType":5126,"count":482,"max":[10,10,20],"min":[-10,-10,0],"type":"VEC3"},{"bufferView":5,"byteOffset":0,"componentType":5126,"count":482,"type":"VEC3"},{"bufferView":6,"byteOffset":0,"componentType":5125,"count":2772,"type":"SCALAR"},{"bufferView":7,"byteOffset":0,"componentType":5126,"count":2744,"max":[49.41180419921875,34.94865036010742,100],"min":[-49.41180419921875,-50,0],"type":"VEC3"},{"bufferView":8,"byteOffset":0,"componentType":5126,"count":2744,"type":"VEC3"}],"bufferViews":[{"buffer":0,"byteOffset":0,"byteLength":11520,"target":34963},{"buffer":0,"byteOffset":11520,"byteLength":5784,"target":34962},{"buffer":0,"byteOffset":17304,"byteLength":5784,"target":34962},{"buffer":0,"byteOffset":23088,"byteLength":11520,"target":34963},{"buffer":0,"byteOffset":34608,"byteLength":5784,"target":34962},{"buffer":0,"byteOffset":40392,"byteLength":5784,"target":34962},{"buffer":0,"byteOffset":46176,"byteLength":11088,"target":34963},{"buffer":0,"byteOffset":57264,"byteLength":32928,"target":34962},{"buffer":0,"byteOffset":90192,"byteLength":32928,"target":34962}],"scene":0,"scenes":[{"nodes":[0],"name":"PACMAN"}],"extensionsUsed":["KHR_texture_transform"],"buffers":[{"byteLength":123120,"uri":"PACMAN.bin"}]}